<svg width="26" height="23" viewBox="0 0 26 23" fill="none" xmlns="http://www.w3.org/2000/svg">
<path d="M24.987 9.31983C24.9271 9.41147 24.8499 9.49044 24.7595 9.55222C24.6692 9.614 24.5676 9.65738 24.4605 9.67989C24.3534 9.7024 24.2429 9.70359 24.1354 9.68341C24.0278 9.66322 23.9253 9.62205 23.8336 9.56223C23.1307 9.09959 22.329 8.80845 21.4931 8.71224C20.6571 8.61604 19.8102 8.71745 19.0206 9.00832C18.8129 9.08391 18.5837 9.0739 18.3834 8.9805C18.1831 8.8871 18.0281 8.71795 17.9525 8.51026C17.8769 8.30258 17.8869 8.07337 17.9803 7.87306C18.0737 7.67276 18.2429 7.51776 18.4506 7.44217C18.8899 7.28221 19.2756 7.00224 19.5638 6.63406C19.8521 6.26589 20.0313 5.82426 20.0811 5.35935C20.1309 4.89443 20.0493 4.42487 19.8457 4.00399C19.642 3.5831 19.3243 3.22778 18.9288 2.97837C18.5333 2.72896 18.0758 2.59546 17.6083 2.59304C17.1407 2.59062 16.6818 2.71938 16.2837 2.96468C15.8857 3.20998 15.5644 3.562 15.3564 3.98075C15.1483 4.3995 15.0619 4.8682 15.1069 5.3336C15.1175 5.44258 15.1064 5.55257 15.0745 5.65729C15.0425 5.76201 14.9903 5.85941 14.9207 5.94393C14.8511 6.02845 14.7655 6.09843 14.6689 6.14989C14.5722 6.20134 14.4664 6.23325 14.3574 6.2438C14.2484 6.25435 14.1384 6.24333 14.0337 6.21138C13.929 6.17942 13.8316 6.12715 13.7471 6.05755C13.6625 5.98795 13.5926 5.90238 13.5411 5.80574C13.4897 5.70909 13.4577 5.60326 13.4472 5.49428C13.3849 4.84885 13.4742 4.1978 13.7078 3.59293C13.9414 2.98806 14.313 2.44606 14.793 2.01007C15.2729 1.57407 15.848 1.25612 16.4725 1.08149C17.097 0.906868 17.7536 0.8804 18.3901 1.00419C19.0266 1.12798 19.6254 1.39862 20.1389 1.79457C20.6524 2.19051 21.0664 2.70084 21.348 3.28494C21.6295 3.86905 21.7709 4.5108 21.7608 5.15915C21.7507 5.80749 21.5894 6.44453 21.2898 7.01958C22.5224 7.09306 23.7143 7.48776 24.7471 8.16447C24.8388 8.22449 24.9178 8.30201 24.9795 8.3926C25.0412 8.48319 25.0845 8.58506 25.1067 8.69239C25.129 8.79971 25.1299 8.91037 25.1094 9.01804C25.0888 9.12571 25.0472 9.22826 24.987 9.31983ZM21.9076 17.2691C21.9947 17.3384 22.067 17.4243 22.1204 17.522C22.1737 17.6197 22.207 17.727 22.2181 17.8377C22.2293 17.9485 22.2182 18.0603 22.1855 18.1667C22.1527 18.273 22.099 18.3717 22.0275 18.457C21.956 18.5423 21.8681 18.6123 21.7691 18.6631C21.6701 18.7138 21.5619 18.7442 21.4509 18.7525C21.3399 18.7608 21.2284 18.7467 21.123 18.7112C21.0175 18.6756 20.9202 18.6194 20.8369 18.5456C20.0396 17.8901 19.0852 17.4538 18.0678 17.2797C17.0505 17.1055 16.0053 17.1996 15.0354 17.5526C14.0655 17.9057 13.2044 18.5054 12.537 19.2928C11.8696 20.0801 11.4189 21.0278 11.2295 22.0424C11.2146 22.1538 11.1773 22.2611 11.1199 22.3577C11.0625 22.4543 10.9861 22.5383 10.8954 22.6046C10.8047 22.671 10.7015 22.7183 10.592 22.7437C10.4825 22.7691 10.3691 22.7722 10.2584 22.7526C10.1477 22.733 10.0421 22.6913 9.94802 22.6298C9.85391 22.5684 9.77319 22.4886 9.71073 22.3951C9.64827 22.3017 9.60535 22.1966 9.58456 22.0861C9.56377 21.9757 9.56554 21.8622 9.58976 21.7524C9.87417 20.1717 10.6581 18.7238 11.8264 17.6217C10.8293 17.3084 9.95538 16.6906 9.32754 15.855C8.69969 15.0194 8.34948 14.0081 8.32612 12.9632C8.30277 11.9183 8.60744 10.8923 9.19732 10.0295C9.78721 9.16674 10.6326 8.51048 11.6148 8.15301C12.5969 7.79554 13.6664 7.75483 14.6729 8.03661C15.6793 8.31838 16.5722 8.90847 17.226 9.72393C17.8797 10.5394 18.2615 11.5392 18.3177 12.5829C18.3738 13.6265 18.1015 14.6616 17.539 15.5425C19.1424 15.6358 20.6736 16.241 21.9076 17.2691ZM14.4661 15.9869C15.0856 15.7614 15.6243 15.3573 16.0142 14.8256C16.404 14.294 16.6274 13.6587 16.6562 13C16.6849 12.3414 16.5177 11.689 16.1757 11.1254C15.8337 10.5617 15.3322 10.1122 14.7347 9.83358C14.1372 9.55496 13.4705 9.45978 12.8189 9.56007C12.1673 9.66036 11.5601 9.95162 11.074 10.397C10.588 10.8424 10.2449 11.4219 10.0882 12.0623C9.93151 12.7027 9.96822 13.3752 10.1937 13.9947C10.4961 14.8254 11.1161 15.502 11.9173 15.8756C12.7185 16.2493 13.6353 16.2893 14.4661 15.9869ZM6.98943 12.5005C6.91383 12.2928 6.75884 12.1237 6.55853 12.0303C6.35822 11.9369 6.12902 11.9268 5.92133 12.0024C5.48194 12.1623 5.00652 12.1958 4.54907 12.099C4.09162 12.0022 3.67047 11.7791 3.33347 11.455C2.99647 11.1309 2.75713 10.7187 2.64262 10.2654C2.52811 9.81204 2.54303 9.33568 2.68568 8.8904C2.82833 8.44511 3.093 8.04876 3.44963 7.74636C3.80625 7.44396 4.24053 7.24763 4.70314 7.17967C5.16575 7.11172 5.63815 7.17486 6.06667 7.36192C6.4952 7.54898 6.86267 7.85248 7.12736 8.23792C7.25251 8.42022 7.44495 8.54533 7.66235 8.58574C7.87975 8.62615 8.10429 8.57854 8.28659 8.45339C8.46889 8.32824 8.594 8.1358 8.63441 7.9184C8.67482 7.70101 8.62721 7.47646 8.50206 7.29416C8.13488 6.75972 7.64803 6.31834 7.08026 6.00516C6.51248 5.69198 5.87944 5.51563 5.23152 5.49016C4.5836 5.46468 3.93867 5.59077 3.34805 5.8584C2.75743 6.12603 2.23743 6.52782 1.82942 7.03178C1.4214 7.53574 1.13664 8.12798 0.99779 8.76136C0.858937 9.39474 0.869826 10.0518 1.02959 10.6802C1.18935 11.3087 1.49358 11.8911 1.91807 12.3813C2.34256 12.8715 2.87559 13.2558 3.47475 13.5037C2.57898 14.3523 1.92067 15.4204 1.56511 16.602C1.50084 16.8136 1.52324 17.042 1.62739 17.237C1.73153 17.4321 1.90889 17.5777 2.12044 17.642C2.33199 17.7063 2.5604 17.6839 2.75543 17.5797C2.95047 17.4756 3.09614 17.2982 3.16041 17.0867C3.40148 16.2805 3.82848 15.5421 4.40703 14.9311C4.98558 14.32 5.69951 13.8533 6.49137 13.5686C6.69905 13.493 6.8682 13.338 6.9616 13.1377C7.05501 12.9374 7.06502 12.7082 6.98943 12.5005Z" fill="#706D7E"/>
</svg>
