<svg width="23" height="23" viewBox="0 0 23 23" fill="none" xmlns="http://www.w3.org/2000/svg">
<path d="M8.05095 1.10845C7.84327 1.18404 7.67412 1.33904 7.58072 1.53934C7.48731 1.73965 7.4773 1.96886 7.55289 2.17654L9.54801 7.65808C9.6236 7.86577 9.7786 8.03492 9.97891 8.12832C10.1792 8.22173 10.4084 8.23173 10.6161 8.15614C11.3057 7.90534 12.0587 7.88907 12.7584 8.10985C13.4582 8.33063 14.0655 8.77612 14.4863 9.37725C14.9071 9.97837 15.1177 10.7015 15.0856 11.4346C15.0535 12.1676 14.7804 12.8696 14.3087 13.4316C13.837 13.9937 13.193 14.3843 12.4767 14.5431C11.7603 14.7018 11.0116 14.6198 10.3466 14.3097C9.68159 13.9995 9.13751 13.4786 8.79872 12.8278C8.45993 12.1769 8.34536 11.4325 8.47278 10.7099C8.49179 10.6021 8.48939 10.4916 8.46569 10.3847C8.442 10.2779 8.39748 10.1767 8.33469 10.0871C8.27189 9.99739 8.19205 9.92098 8.09972 9.86219C8.00739 9.80339 7.90438 9.76336 7.79657 9.74439L2.05161 8.73153C1.94381 8.71252 1.83332 8.71492 1.72645 8.73862C1.61959 8.76231 1.51843 8.80683 1.42877 8.86962C1.33912 8.93242 1.26271 9.01226 1.20391 9.10459C1.14512 9.19692 1.10509 9.29993 1.08611 9.40774C0.67201 11.7562 1.04439 14.1758 2.1455 16.2911C3.24661 18.4063 5.01492 20.0992 7.17619 21.1071C9.33745 22.115 11.7709 22.3816 14.0991 21.8656C16.4273 21.3495 18.5202 20.0797 20.0532 18.253C21.5862 16.4263 22.4736 14.1448 22.5779 11.7623C22.6821 9.37989 21.9972 7.02962 20.6296 5.07604C19.262 3.12245 17.2879 1.67472 15.0137 0.957361C12.7394 0.240004 10.292 0.293112 8.05095 1.10845ZM2.61957 10.5235L6.75497 11.2531C6.75138 11.8483 6.8539 12.4393 7.05771 12.9986C7.11222 13.1483 7.17242 13.2894 7.24028 13.4332L3.80202 15.8463C2.87808 14.2327 2.46575 12.3765 2.61957 10.5235ZM4.75628 17.2072L8.20183 14.7958C8.77422 15.3754 9.47929 15.8067 10.2559 16.0523C11.0326 16.2979 11.8574 16.3504 12.659 16.2054L14.0951 20.1511C12.4193 20.5909 10.6532 20.5478 9.00082 20.0269C7.3484 19.5061 5.87695 18.5285 4.75628 17.2072ZM15.6613 19.5811L14.2251 15.6353C15.252 15.0515 16.039 14.123 16.4467 13.0144C16.8543 11.9058 16.8564 10.6886 16.4524 9.57863C16.0484 8.46865 15.2644 7.53755 14.2395 6.95034C13.2146 6.36313 12.0149 6.15773 10.853 6.37056L9.41689 2.42482C11.628 1.84146 13.9773 2.10561 16.0037 3.16542C18.03 4.22523 19.5871 6.00416 20.3692 8.15302C21.1513 10.3019 21.102 12.6655 20.231 14.7798C19.3599 16.8942 17.73 18.6067 15.6613 19.5811Z" fill="#706D7E"/>
</svg>
