<svg width="8" height="12" viewBox="0 0 8 12" fill="none" xmlns="http://www.w3.org/2000/svg">
<path d="M3.33329 10.2621C3.33329 10.9954 2.73329 11.5954 1.99996 11.5954C1.26663 11.5954 0.666626 10.9954 0.666626 10.2621C0.666626 9.52877 1.26663 8.92877 1.99996 8.92877C2.73329 8.92877 3.33329 9.52877 3.33329 10.2621ZM1.99996 4.92877C1.26663 4.92877 0.666626 5.52877 0.666626 6.2621C0.666626 6.99544 1.26663 7.59544 1.99996 7.59544C2.73329 7.59544 3.33329 6.99544 3.33329 6.2621C3.33329 5.52877 2.73329 4.92877 1.99996 4.92877ZM1.99996 0.928772C1.26663 0.928772 0.666626 1.52877 0.666626 2.26211C0.666626 2.99544 1.26663 3.59544 1.99996 3.59544C2.73329 3.59544 3.33329 2.99544 3.33329 2.26211C3.33329 1.52877 2.73329 0.928772 1.99996 0.928772ZM5.99996 3.59544C6.73329 3.59544 7.33329 2.99544 7.33329 2.26211C7.33329 1.52877 6.73329 0.928772 5.99996 0.928772C5.26663 0.928772 4.66663 1.52877 4.66663 2.26211C4.66663 2.99544 5.26663 3.59544 5.99996 3.59544ZM5.99996 4.92877C5.26663 4.92877 4.66663 5.52877 4.66663 6.2621C4.66663 6.99544 5.26663 7.59544 5.99996 7.59544C6.73329 7.59544 7.33329 6.99544 7.33329 6.2621C7.33329 5.52877 6.73329 4.92877 5.99996 4.92877ZM5.99996 8.92877C5.26663 8.92877 4.66663 9.52877 4.66663 10.2621C4.66663 10.9954 5.26663 11.5954 5.99996 11.5954C6.73329 11.5954 7.33329 10.9954 7.33329 10.2621C7.33329 9.52877 6.73329 8.92877 5.99996 8.92877Z" fill="#464353"/>
</svg>
