<svg width="27" height="25" viewBox="0 0 27 25" fill="none" xmlns="http://www.w3.org/2000/svg">
<path d="M7.41976 11.6149C7.34417 11.4072 7.35418 11.178 7.44758 10.9777C7.54098 10.7773 7.71013 10.6223 7.91782 10.5468L17.3147 7.12656C17.5224 7.05096 17.7516 7.06097 17.9519 7.15438C18.1523 7.24778 18.3072 7.41693 18.3828 7.62462C18.4584 7.8323 18.4484 8.06151 18.355 8.26181C18.2616 8.46212 18.0925 8.61712 17.8848 8.69271L8.48785 12.1129C8.28017 12.1885 8.05096 12.1785 7.85065 12.0851C7.65035 11.9917 7.49535 11.8225 7.41976 11.6149ZM9.62792 15.2452L19.0248 11.825C19.2325 11.7494 19.4017 11.5944 19.4951 11.3941C19.5885 11.1938 19.5985 10.9646 19.5229 10.7569C19.4473 10.5492 19.2923 10.3801 19.092 10.2867C18.8917 10.1933 18.6625 10.1833 18.4548 10.2589L9.05789 13.6791C8.8502 13.7547 8.68105 13.9097 8.58765 14.11C8.49424 14.3103 8.48424 14.5395 8.55983 14.7472C8.63542 14.9548 8.79042 15.124 8.99072 15.2174C9.19103 15.3108 9.42024 15.3208 9.62792 15.2452ZM21.3712 1.21605L26.7865 16.0945C26.835 16.228 26.8486 16.3717 26.826 16.5119C26.8033 16.6521 26.7453 16.7842 26.6572 16.8957C26.5692 17.0071 26.4541 17.0942 26.3229 17.1487C26.1918 17.2032 26.0488 17.2232 25.9078 17.207L22.6196 16.8285L20.344 19.232C20.255 19.326 20.1453 19.3981 20.0237 19.4423C19.902 19.4866 19.7717 19.5019 19.6431 19.4871L16.355 19.1087L14.0794 21.5121C13.9904 21.6062 13.8807 21.6782 13.7591 21.7225C13.6374 21.7667 13.5071 21.7821 13.3785 21.7672L10.0904 21.3888L7.81475 23.7923C7.71713 23.8954 7.59477 23.9719 7.45927 24.0145C7.32377 24.0571 7.17963 24.0643 7.04055 24.0356C6.90147 24.0068 6.77205 23.9429 6.66458 23.8501C6.55711 23.7572 6.47516 23.6384 6.42651 23.505L1.0112 8.62649C0.860013 8.21112 0.880028 7.7527 1.06684 7.35209C1.25365 6.95148 1.59195 6.64148 2.00732 6.4903L19.235 0.219931C19.6504 0.0687489 20.1088 0.0887636 20.5094 0.275572C20.91 0.462381 21.22 0.800682 21.3712 1.21605ZM19.805 1.78609L2.57735 8.05645L7.53165 21.6683L9.16635 19.9404C9.25533 19.8464 9.36499 19.7744 9.48665 19.7301C9.6083 19.6858 9.7386 19.6705 9.8672 19.6853L13.1557 20.0647L15.431 17.6603C15.5199 17.5662 15.6296 17.4942 15.7513 17.4499C15.8729 17.4057 16.0032 17.3903 16.1318 17.4052L19.4203 17.7846L21.6956 15.3801C21.7846 15.2861 21.8942 15.2141 22.0159 15.1698C22.1375 15.1255 22.2678 15.1102 22.3964 15.125L24.7594 15.3979L19.805 1.78609Z" fill="#706D7E"/>
</svg>
