<svg width="23" height="23" viewBox="0 0 23 23" fill="none" xmlns="http://www.w3.org/2000/svg">
<path d="M10.0459 6.58998C9.1166 6.9282 8.3085 7.5344 7.72375 8.33189C7.139 9.12939 6.80386 10.0824 6.76073 11.0703C6.71759 12.0583 6.96839 13.0369 7.48141 13.8823C7.99443 14.7277 8.74663 15.4021 9.64288 15.82C10.5391 16.2379 11.5392 16.3807 12.5166 16.2303C13.494 16.0798 14.4048 15.6429 15.1339 14.9748C15.863 14.3067 16.3776 13.4374 16.6127 12.4769C16.8477 11.5163 16.7927 10.5076 16.4544 9.57834C15.9997 8.3331 15.0696 7.3191 13.8682 6.75885C12.6667 6.19861 11.2921 6.13787 10.0459 6.58998ZM12.896 14.4208C12.2765 14.6462 11.6041 14.6829 10.9637 14.5262C10.3233 14.3695 9.74378 14.0265 9.29838 13.5404C8.85298 13.0543 8.56172 12.4471 8.46143 11.7955C8.36114 11.1439 8.45632 10.4772 8.73494 9.87971C9.01356 9.28221 9.46311 8.78075 10.0267 8.43873C10.5903 8.09672 11.2427 7.92952 11.9014 7.95828C12.56 7.98704 13.1953 8.21046 13.727 8.60029C14.2587 8.99013 14.6628 9.52886 14.8883 10.1484C15.1906 10.9791 15.1506 11.8959 14.777 12.6972C14.4034 13.4984 13.7268 14.1184 12.896 14.4208ZM20.4468 8.36469C20.3994 8.22231 20.3481 8.08135 20.2929 7.94183L21.0892 5.5857C21.1309 5.46203 21.143 5.33029 21.1245 5.2011C21.1059 5.07191 21.0573 4.94887 20.9826 4.84191C20.4152 4.0294 19.7426 3.29572 18.9824 2.66006C18.8828 2.57693 18.7652 2.51819 18.6389 2.48852C18.5127 2.45884 18.3812 2.45905 18.255 2.48913L15.8392 3.07579C15.7055 3.00914 15.572 2.94689 15.4386 2.88902L14.3173 0.661078C14.2591 0.54504 14.1746 0.444202 14.0706 0.366606C13.9665 0.28901 13.8457 0.236801 13.7179 0.21414C12.7425 0.0406837 11.7483 -0.00229838 10.7615 0.0863243C10.6315 0.0977945 10.506 0.139641 10.3951 0.208493C10.2843 0.277344 10.1911 0.371276 10.1232 0.482721L8.83222 2.59764C8.69126 2.64894 8.55031 2.70024 8.40935 2.75155L6.0543 1.95813C5.93063 1.91642 5.79889 1.90435 5.6697 1.92287C5.5405 1.9414 5.41747 1.99001 5.3105 2.06479C4.49799 2.63214 3.76432 3.30473 3.12865 4.06499C3.04553 4.16455 2.98679 4.28215 2.95711 4.40842C2.92744 4.53469 2.92765 4.66614 2.95773 4.79231L3.54581 7.2121C3.4794 7.34639 3.41715 7.4799 3.35904 7.61264L1.12861 8.72708C1.01257 8.78528 0.911732 8.86978 0.834135 8.97385C0.756539 9.07792 0.70433 9.19868 0.68167 9.32651C0.508369 10.3021 0.465061 11.2963 0.552875 12.2832C0.564507 12.4133 0.606527 12.5388 0.675551 12.6496C0.744574 12.7604 0.838669 12.8534 0.95025 12.9212L3.06517 14.2122C3.11647 14.3531 3.16777 14.4941 3.21908 14.6351L2.42566 16.9901C2.38395 17.1138 2.37188 17.2455 2.3904 17.3747C2.40893 17.5039 2.45754 17.6269 2.53232 17.7339C3.09967 18.5464 3.77226 19.2801 4.53252 19.9158C4.63208 19.9989 4.74968 20.0576 4.87595 20.0873C5.00222 20.117 5.13367 20.1168 5.25984 20.0867L7.67572 19.5C7.81 19.5664 7.94351 19.6287 8.07625 19.6868L9.19461 21.9158C9.25281 22.0318 9.33731 22.1327 9.44138 22.2103C9.54545 22.2879 9.66621 22.3401 9.79403 22.3627C10.7696 22.536 11.7638 22.5794 12.7508 22.4915C12.8808 22.4799 13.0063 22.4379 13.1171 22.3689C13.2279 22.2998 13.321 22.2057 13.3888 22.0942L14.6797 19.9792C14.8221 19.9319 14.9631 19.8806 15.1026 19.8253L17.4587 20.6217C17.5824 20.6634 17.7141 20.6755 17.8433 20.6569C17.9725 20.6384 18.0955 20.5898 18.2025 20.515C19.0153 19.9481 19.749 19.2754 20.3844 18.5148C20.4675 18.4153 20.5262 18.2977 20.5559 18.1714C20.5856 18.0451 20.5854 17.9137 20.5553 17.7875L19.9686 15.3716C20.0353 15.238 20.0975 15.1045 20.1554 14.9711L22.3833 13.8498C22.4994 13.7916 22.6002 13.7071 22.6778 13.603C22.7554 13.499 22.8076 13.3782 22.8303 13.2504C23.0036 12.2748 23.0469 11.2806 22.9591 10.2936C22.9474 10.1636 22.9054 10.0381 22.8364 9.9273C22.7674 9.81649 22.6733 9.72344 22.5617 9.65566L20.4468 8.36469ZM18.6393 8.30204C18.7589 8.57895 18.8621 8.86265 18.9485 9.15167C19.0073 9.34965 19.1376 9.51872 19.3141 9.62609L21.3347 10.856C21.3597 11.4206 21.3344 11.9862 21.2593 12.5463L19.1383 13.602C18.9534 13.6935 18.8091 13.8503 18.7331 14.0421C18.6219 14.3226 18.4942 14.5963 18.3509 14.8619C18.2528 15.0433 18.2254 15.2547 18.2742 15.4552L18.8329 17.7548C18.4523 18.1725 18.0352 18.5554 17.5866 18.899L15.3446 18.1421C15.1652 18.0816 14.9706 18.0841 14.7928 18.1489L14.7458 18.166C14.4689 18.2857 14.1852 18.3889 13.8962 18.4753C13.6985 18.5347 13.5296 18.6648 13.4218 18.8408L12.1873 20.8642C11.6228 20.8892 11.0571 20.864 10.4971 20.7888L9.44239 18.6708C9.35089 18.4859 9.19407 18.3415 9.00228 18.2656C8.72179 18.1543 8.44806 18.0267 8.18252 17.8834C8.00107 17.7852 7.78968 17.7579 7.58925 17.8066L5.28923 18.3644C4.87156 17.9838 4.48864 17.5667 4.14501 17.1181L4.90196 14.8761C4.9681 14.6804 4.95922 14.4672 4.87705 14.2777C4.75742 14.0008 4.65416 13.7171 4.5678 13.4281C4.50895 13.2301 4.37868 13.061 4.20225 12.9536L2.18017 11.7198C2.15519 11.1552 2.18043 10.5896 2.25559 10.0296L4.37364 8.97486C4.55851 8.88336 4.70287 8.72654 4.77879 8.53475C4.89008 8.25426 5.01772 7.98054 5.16105 7.71499C5.25972 7.53325 5.28728 7.32132 5.23839 7.12039L4.67998 4.8217C5.06061 4.40403 5.4777 4.02111 5.92629 3.67748L8.16832 4.43443C8.36398 4.50057 8.57723 4.49169 8.76672 4.40952C9.04363 4.28989 9.32733 4.18663 9.61635 4.10027C9.81406 4.04089 9.98295 3.91075 10.0908 3.73472L11.3246 1.71264C11.8892 1.68766 12.4548 1.7129 13.0149 1.78806L14.0695 3.90611C14.1611 4.09098 14.3179 4.23534 14.5097 4.31126C14.7902 4.42255 15.0639 4.55019 15.3294 4.69353C15.5109 4.79164 15.7223 4.81898 15.9227 4.77024L18.2224 4.21147C18.64 4.5921 19.0229 5.00919 19.3666 5.45779L18.6096 7.69981C18.5428 7.89717 18.5523 8.11242 18.6363 8.3031L18.6393 8.30204Z" fill="#706D7E"/>
</svg>
