<svg width="24" height="26" viewBox="0 0 24 26" fill="none" xmlns="http://www.w3.org/2000/svg">
<path d="M16.5263 13.2126C16.6019 13.4203 16.5919 13.6495 16.4985 13.8498C16.4051 14.0501 16.2359 14.2051 16.0283 14.2807L9.76365 16.5608C9.55596 16.6364 9.32675 16.6264 9.12645 16.533C8.92614 16.4396 8.77114 16.2704 8.69555 16.0628C8.61996 15.8551 8.62997 15.6259 8.72337 15.4256C8.81678 15.2253 8.98593 15.0703 9.19361 14.9947L15.4582 12.7145C15.6659 12.6389 15.8951 12.649 16.0954 12.7424C16.2957 12.8358 16.4507 13.0049 16.5263 13.2126ZM14.3182 9.58223L8.05355 11.8624C7.84586 11.938 7.67671 12.0929 7.58331 12.2933C7.4899 12.4936 7.47989 12.7228 7.55549 12.9305C7.63108 13.1381 7.78607 13.3073 7.98638 13.4007C8.18669 13.4941 8.41589 13.5041 8.62358 13.4285L14.8882 11.1484C15.0959 11.0728 15.265 10.9178 15.3584 10.7175C15.4518 10.5172 15.4618 10.288 15.3863 10.0803C15.3107 9.8726 15.1557 9.70345 14.9554 9.61005C14.7551 9.51664 14.5258 9.50664 14.3182 9.58223ZM17.5196 1.32249L23.5049 17.7671C23.6561 18.1825 23.6361 18.6409 23.4493 19.0415C23.2625 19.4421 22.9242 19.7521 22.5088 19.9033L8.41341 25.0336C7.99804 25.1848 7.53963 25.1648 7.13901 24.978C6.7384 24.7912 6.42841 24.4529 6.27722 24.0375L0.291871 7.59286C0.140689 7.17749 0.160703 6.71908 0.347512 6.31846C0.534321 5.91785 0.872622 5.60785 1.28799 5.45667L4.83729 4.16483C5.09798 3.51206 5.4936 2.9217 5.99825 2.43241C6.50289 1.94311 7.10519 1.56592 7.7657 1.32551C8.42622 1.0851 9.13006 0.986903 9.83116 1.03734C10.5322 1.08778 11.2148 1.28572 11.8341 1.61821L15.3834 0.32637C15.7988 0.175189 16.2572 0.195203 16.6578 0.382012C17.0584 0.568821 17.3684 0.907122 17.5196 1.32249ZM6.34345 7.1639L12.6081 4.88376C12.3057 4.05302 11.6857 3.37642 10.8845 3.0028C10.0833 2.62919 9.16643 2.58916 8.33569 2.89152C7.50495 3.19389 6.82835 3.81388 6.45473 4.6151C6.08111 5.41633 6.04108 6.33316 6.34345 7.1639ZM15.9534 1.89252L13.335 2.84555C13.6962 3.28366 13.98 3.78018 14.1742 4.31373L14.4592 5.09681C14.5348 5.30449 14.5248 5.5337 14.4314 5.73401C14.338 5.93431 14.1689 6.08931 13.9612 6.1649L6.1304 9.01507C5.92272 9.09066 5.69351 9.08065 5.4932 8.98725C5.2929 8.89384 5.1379 8.72469 5.06231 8.51701L4.77729 7.73393C4.58311 7.20036 4.48137 6.63758 4.47644 6.0698L1.85803 7.02283L7.84338 23.4675L21.9388 18.3371L15.9534 1.89252Z" fill="#706D7E"/>
</svg>
